<svg xmlns="http://www.w3.org/2000/svg" height="800" width="1200" viewBox="-29.305575 -9.55 253.98165 57.3"><path d="M195.26 11.11a1.5 1.5 0 00-1.38-.92c-3.82 0-6.6 1.3-8.29 3.86a10.45 10.45 0 00-1.57 6v6.38a1.52 1.52 0 001.5 1.57 1.5 1.5 0 001.5-1.5v-6.42a7.71 7.71 0 011.08-4.38c1.07-1.63 2.87-2.45 5.5-2.5h.26a1.51 1.51 0 001.51-1.5 1.43 1.43 0 00-.11-.59zm-39.25-.92a8.91 8.91 0 100 17.81h7.4a1.51 1.51 0 001.51-1.5v-7.4a8.92 8.92 0 00-8.91-8.91zm5.9 8.92v4.83a1.08 1.08 0 01-.3.75 1 1 0 01-.74.31h-4.86a6 6 0 01-4.32-1.88 5.84 5.84 0 01-1.57-4.45 5.9 5.9 0 0111.79.43zm-16.44-8.92c-3.81 0-6.6 1.3-8.28 3.86a10.45 10.45 0 00-1.57 6v6.38a1.51 1.51 0 003 0v-6.35a7.55 7.55 0 011.08-4.38c1.05-1.61 2.82-2.43 5.39-2.5h.37a1.51 1.51 0 001.51-1.5 1.53 1.53 0 00-.16-.66 1.49 1.49 0 00-1.38-.85zm28.23 12.46l.5-.66 7.1-9.4a1.47 1.47 0 00.29-.88 1.52 1.52 0 00-1.58-1.51h-10.92a1.51 1.51 0 000 3h7.34a.29.29 0 01.23.47l-1.44 1.87c-3.07 4.07-7.51 10-7.69 10.24a1.44 1.44 0 00-.18.71 1.5 1.5 0 001.5 1.5h11.16a1.5 1.5 0 001.51-1.5 1.36 1.36 0 00-.11-.56 1.49 1.49 0 00-1.4-.93h-7.58a.29.29 0 01-.23-.47zM124.01 38.2h.72V0h-.72zM13.41 8.7a13.41 13.41 0 1013.41 13.4A13.41 13.41 0 0013.41 8.7zm0 26.08A12.68 12.68 0 1126.09 22.1a12.69 12.69 0 01-12.68 12.68zm0-9.68l-3.9-12.83-5 16.42h.94a18.71 18.71 0 011.66-4.56 3 3 0 012.57-1.66c.81 0 1.51.46 2.39 1.68a9.56 9.56 0 01.66 1.16c.36.72.68 1.45.68 1.45a20.38 20.38 0 011.34-2.61c.88-1.22 1.58-1.67 2.39-1.68a3 3 0 012.58 1.66 19 19 0 011.65 4.56h.94l-5-16.42zm40.64-8.64a5.74 5.74 0 105.72 5.74 5.76 5.76 0 00-5.69-5.74zm0 9.33a3.59 3.59 0 113.59-3.59 3.59 3.59 0 01-3.56 3.59zM42.4 16.46A4.48 4.48 0 0039.01 18a4.48 4.48 0 00-7.92 3v6.82h2.15V21a2.34 2.34 0 114.67 0v6.82h2.15V21a2.34 2.34 0 114.67 0v6.82h2.15V21a4.49 4.49 0 00-4.48-4.54zm21 7v-4.85h2.78v-2.15h-2.79V13.6h-2.15v9.86a4.49 4.49 0 004.49 4.48h.45v-2.15h-.45a2.34 2.34 0 01-2.34-2.33zm35.77 4.32h2.16V13.6h-2.17zM72.73 16.46a5.74 5.74 0 105.74 5.74 5.74 5.74 0 00-5.74-5.74zm0 9.33a3.59 3.59 0 113.59-3.59 3.58 3.58 0 01-3.59 3.59zm35.77-9.33a5.74 5.74 0 100 11.48 5.67 5.67 0 003.67-1.34v1.18h2.06V22.2a5.74 5.74 0 00-5.73-5.74zm0 9.33a3.59 3.59 0 113.58-3.59 3.59 3.59 0 01-3.58 3.59zm-16.49-9.33a5.74 5.74 0 105.74 5.74 5.75 5.75 0 00-5.74-5.74zm0 9.33a3.59 3.59 0 113.59-3.59 3.59 3.59 0 01-3.59 3.59zM79.91 21v6.83h2.15V21a2.34 2.34 0 012.34-2.34h1v-2.2h-1A4.5 4.5 0 0079.91 21z"/></svg>